<mxfile host="app.diagrams.net" modified="2022-05-18T15:11:19.320Z" agent="5.0 (Macintosh; Intel Mac OS X 10_15_7) AppleWebKit/537.36 (KHTML, like Gecko) Chrome/100.0.4896.127 Safari/537.36" etag="2D2dhQOU-zb2NJx-7XQk" version="18.0.7" type="github">
  <diagram id="haoWSsomJU11988gQaMx" name="操作系统线程">
    <mxGraphModel dx="1426" dy="769" grid="1" gridSize="10" guides="1" tooltips="1" connect="1" arrows="1" fold="1" page="1" pageScale="1" pageWidth="827" pageHeight="1169" math="0" shadow="0">
      <root>
        <mxCell id="0" />
        <mxCell id="1" parent="0" />
        <mxCell id="IX3QWuBXz7q-pzZ8JjYO-8" value="" style="edgeStyle=orthogonalEdgeStyle;curved=0;rounded=1;sketch=0;orthogonalLoop=1;jettySize=auto;html=1;fontColor=#5AA9E6;strokeColor=#FF6392;fillColor=#FFE45E;" edge="1" parent="1" source="IX3QWuBXz7q-pzZ8JjYO-2">
          <mxGeometry relative="1" as="geometry">
            <mxPoint x="350" y="400" as="targetPoint" />
          </mxGeometry>
        </mxCell>
        <mxCell id="IX3QWuBXz7q-pzZ8JjYO-2" value="可运行" style="ellipse;whiteSpace=wrap;html=1;aspect=fixed;rounded=0;sketch=0;fontColor=#5AA9E6;strokeColor=#FF6392;fillColor=#FFE45E;" vertex="1" parent="1">
          <mxGeometry x="140" y="360" width="80" height="80" as="geometry" />
        </mxCell>
        <mxCell id="IX3QWuBXz7q-pzZ8JjYO-9" value="" style="edgeStyle=orthogonalEdgeStyle;curved=0;rounded=1;sketch=0;orthogonalLoop=1;jettySize=auto;html=1;fontColor=#5AA9E6;strokeColor=#FF6392;fillColor=#FFE45E;" edge="1" parent="1" source="IX3QWuBXz7q-pzZ8JjYO-3" target="IX3QWuBXz7q-pzZ8JjYO-4">
          <mxGeometry relative="1" as="geometry" />
        </mxCell>
        <mxCell id="IX3QWuBXz7q-pzZ8JjYO-3" value="运行中" style="ellipse;whiteSpace=wrap;html=1;aspect=fixed;rounded=0;sketch=0;fontColor=#5AA9E6;strokeColor=#FF6392;fillColor=#FFE45E;" vertex="1" parent="1">
          <mxGeometry x="350" y="360" width="80" height="80" as="geometry" />
        </mxCell>
        <mxCell id="IX3QWuBXz7q-pzZ8JjYO-4" value="终止" style="ellipse;whiteSpace=wrap;html=1;aspect=fixed;rounded=0;sketch=0;fontColor=#5AA9E6;strokeColor=#FF6392;fillColor=#FFE45E;" vertex="1" parent="1">
          <mxGeometry x="530" y="360" width="80" height="80" as="geometry" />
        </mxCell>
        <mxCell id="IX3QWuBXz7q-pzZ8JjYO-5" value="阻塞" style="ellipse;whiteSpace=wrap;html=1;aspect=fixed;rounded=0;sketch=0;fontColor=#5AA9E6;strokeColor=#FF6392;fillColor=#FFE45E;" vertex="1" parent="1">
          <mxGeometry x="240" y="230" width="80" height="80" as="geometry" />
        </mxCell>
        <mxCell id="IX3QWuBXz7q-pzZ8JjYO-10" value="" style="curved=1;endArrow=classic;html=1;rounded=1;sketch=0;fontColor=#5AA9E6;strokeColor=#FF6392;fillColor=#FFE45E;exitX=0.5;exitY=0;exitDx=0;exitDy=0;entryX=1;entryY=0.5;entryDx=0;entryDy=0;" edge="1" parent="1" source="IX3QWuBXz7q-pzZ8JjYO-3" target="IX3QWuBXz7q-pzZ8JjYO-5">
          <mxGeometry width="50" height="50" relative="1" as="geometry">
            <mxPoint x="130" y="310" as="sourcePoint" />
            <mxPoint x="180" y="260" as="targetPoint" />
            <Array as="points">
              <mxPoint x="390" y="280" />
            </Array>
          </mxGeometry>
        </mxCell>
        <mxCell id="IX3QWuBXz7q-pzZ8JjYO-11" value="" style="curved=1;endArrow=classic;html=1;rounded=1;sketch=0;fontColor=#5AA9E6;strokeColor=#FF6392;fillColor=#FFE45E;exitX=0;exitY=0.5;exitDx=0;exitDy=0;entryX=0.5;entryY=0;entryDx=0;entryDy=0;" edge="1" parent="1" source="IX3QWuBXz7q-pzZ8JjYO-5" target="IX3QWuBXz7q-pzZ8JjYO-2">
          <mxGeometry width="50" height="50" relative="1" as="geometry">
            <mxPoint x="390" y="510" as="sourcePoint" />
            <mxPoint x="440" y="460" as="targetPoint" />
            <Array as="points">
              <mxPoint x="210" y="280" />
              <mxPoint x="180" y="320" />
            </Array>
          </mxGeometry>
        </mxCell>
      </root>
    </mxGraphModel>
  </diagram>
</mxfile>
